<svg width="3600" height="1600" viewBox="0 0 3600 1600" fill="none" xmlns="http://www.w3.org/2000/svg">
<g clip-path="url(#clip0_1_3)">
<rect width="3600" height="1600" fill="black"/>
<path d="M3600 0H0V1600H3600V0Z" fill="white"/>
<g clip-path="url(#clip1_1_3)">
<path d="M1008.68 455.093C1021.37 463.226 1033.21 472.147 1045.03 481.49C1050.47 485.723 1055.91 489.95 1061.36 494.172C1064.18 496.357 1067 498.543 1069.9 500.794C1083.77 511.446 1097.84 521.813 1111.93 532.163C1114.75 534.236 1117.57 536.309 1120.48 538.445C1126.21 542.658 1131.95 546.87 1137.68 551.079C1151.86 561.493 1166.02 571.943 1180.17 582.389C1185.8 586.537 1191.42 590.686 1197.05 594.835C1208.59 603.344 1220.12 611.865 1231.64 620.394C1237.46 624.691 1243.27 628.988 1249.08 633.285C1251.9 635.372 1254.71 637.458 1257.62 639.608C1272.51 650.609 1287.51 661.389 1302.73 671.943C1335 694.454 1367.79 717.572 1378.2 757.4C1379.89 778.353 1379.56 799.13 1379.09 820.127C1379.02 825.832 1378.96 831.535 1378.9 837.239C1378.76 851.109 1378.48 864.967 1378.2 878.836C1344.06 878.836 1309.91 878.836 1274.73 878.836C1275.04 901.544 1275.04 901.544 1275.35 924.71C1275.47 936.842 1275.57 948.973 1275.65 961.104C1275.74 973.878 1275.87 986.65 1276.07 999.422C1276.27 1011.74 1276.37 1024.06 1276.42 1036.38C1276.47 1043.33 1276.61 1050.28 1276.75 1057.23C1276.76 1083.41 1274.58 1101.68 1256.89 1121.71C1237.48 1140.16 1219.76 1145.63 1193.53 1145.24C1189.65 1145.22 1190.27 1145.25 1186.31 1145.24C1178.09 1145.2 1169.8 1145.33 1161.59 1145.24C1155.99 1145.2 1150.06 1145.27 1144.47 1145.24C1130.81 1145.16 1118.23 1145.24 1104.54 1145.24C1101.5 1145.24 1103.46 1145.24 1101.5 1145.24C1097.69 1145.24 1099.6 1145.24 1097.69 1145.24C1095.79 1145.24 1098.71 1145.24 1095.79 1145.24C1088.19 1145.24 1098.59 1145.24 1091.99 1145.24C1079.06 1145.24 1091.99 1145.24 1079.06 1145.24C1066.13 1145.24 1079.06 1145.24 1066.13 1145.24C1051.71 1145.24 1065.75 1145.24 1051.68 1145.24C1037.61 1145.24 1051.68 1145.24 1037.61 1145.24C998.056 1145.24 1037.61 1145.24 998.056 1145.24C981.322 1145.23 996.915 1145.24 981.322 1145.24C965.73 1145.24 982.463 1145.25 965.73 1145.24C953.56 1145.24 965.73 1145.24 953.56 1145.24C933.784 1145.24 961.927 1145.24 944.053 1145.24C927.319 1145.24 936.828 1145.24 927.319 1145.24C904.121 1145.24 920.474 1145.24 904.121 1145.24C869.133 1145.24 870.299 1145.02 853.54 1145.24C847.85 1145.33 853.54 1145.24 836.047 1145.24C779.001 1145.24 779.242 1146.01 758.655 1130.04C744.796 1116.51 733.231 1103.02 731.511 1083.28C731.527 1079.51 731.543 1075.73 731.559 1071.84C731.56 1067.55 731.561 1063.26 731.561 1058.84C731.616 1051.92 731.616 1051.92 731.672 1044.86C731.686 1040.08 731.696 1035.29 731.703 1030.51C731.73 1017.94 731.8 1005.38 731.879 992.814C731.952 979.981 731.986 967.148 732.021 954.316C732.094 929.155 732.234 903.997 732.369 878.836C698.222 878.836 664.075 878.836 628.893 878.836C628.397 862.319 627.973 845.827 627.717 829.308C627.611 823.71 627.466 818.112 627.278 812.517C625.96 772.047 628.31 738.737 657.032 707.136C664.023 700.747 671.187 695.101 678.847 689.539C682.412 686.845 682.412 686.845 686.048 684.096C693.46 678.58 700.964 673.22 708.507 667.886C714.187 663.824 719.865 659.759 725.54 655.692C728.437 653.619 731.333 651.546 734.317 649.41C748.548 639.167 762.65 628.754 776.748 618.329C779.556 616.255 782.362 614.18 785.255 612.043C790.949 607.833 796.643 603.623 802.336 599.412C816.47 588.963 830.619 578.533 844.766 568.102C874.799 545.954 874.799 545.954 904.823 523.792C910.518 519.593 916.22 515.403 921.929 511.221C935.432 501.319 948.813 491.314 961.985 480.974C964.415 479.099 966.844 477.223 969.347 475.291C973.884 471.782 978.382 468.223 982.833 464.606C997.421 453.432 997.421 453.432 1008.68 455.093Z" fill="url(#paint0_linear_1_3)"/>
<path d="M1003.88 817.129C1029.92 817.129 1051.04 795.997 1051.04 769.93C1051.04 743.862 1029.92 722.73 1003.88 722.73C977.836 722.73 956.723 743.862 956.723 769.93C956.723 795.997 977.836 817.129 1003.88 817.129Z" fill="#FECC09"/>
<path d="M1003.88 1029.08C1047.36 1029.08 1082.6 995.435 1082.6 953.935C1082.6 912.435 1047.36 878.792 1003.88 878.792C960.403 878.792 925.158 912.435 925.158 953.935C925.158 995.435 960.403 1029.08 1003.88 1029.08Z" fill="white"/>
<path d="M1068.82 878.617H939.239C931.507 878.617 925.239 884.885 925.239 892.617V1145.26H1082.82V892.617C1082.82 884.885 1076.55 878.617 1068.82 878.617Z" fill="#FECC09"/>
</g>
<path d="M1488 695.8H1568V971H1488V695.8ZM1600.8 877.4H1584.8V816.2H1598.4C1606.67 816.2 1612.93 815.933 1617.2 815.4C1621.47 814.6 1624.8 813.267 1627.2 811.4C1629.33 809.533 1630.8 806.733 1631.6 803C1632.4 799.267 1632.8 793.8 1632.8 786.6C1632.8 779.4 1632.4 773.933 1631.6 770.2C1630.8 766.2 1629.33 763.267 1627.2 761.4C1625.07 759.533 1621.87 758.333 1617.6 757.8C1613.6 757.267 1607.2 757 1598.4 757H1584.8V695.8H1626C1644.93 695.8 1660.27 697.667 1672 701.4C1683.73 705.133 1692.8 710.867 1699.2 718.6C1705.07 725.8 1708.93 734.733 1710.8 745.4C1712.93 756.067 1714 769.8 1714 786.6C1714 808.2 1712 824.867 1708 836.6C1702.4 851.533 1692.53 862.067 1678.4 868.2L1720 971H1636L1600.8 877.4ZM1867.53 923C1874.2 923 1886.6 922.333 1904.73 921C1907.13 921 1911.53 920.733 1917.93 920.2L1923.93 961.4C1903.4 971 1876.73 975.8 1843.93 975.8C1813.26 975.8 1789.66 968.067 1773.13 952.6C1756.86 937.133 1748.73 913.8 1748.73 882.6C1748.73 866.6 1750.73 851.133 1754.73 836.2C1759 821.267 1763.8 810.867 1769.13 805C1774.73 799.133 1785.13 794.067 1800.33 789.8C1815.53 785.533 1830.6 783.4 1845.53 783.4C1869.53 783.4 1887.53 787.667 1899.53 796.2C1911.53 804.733 1919.4 816.6 1923.13 831.8C1926.86 846.733 1928.73 866.867 1928.73 892.2C1910.6 893.267 1892.86 893.8 1875.53 893.8H1818.73C1818.73 902.333 1820.46 908.733 1823.93 913C1827.66 917.267 1832.86 920.067 1839.53 921.4C1846.2 922.467 1855.53 923 1867.53 923ZM1822.73 831C1821.13 831.8 1819.93 835.267 1819.13 841.4C1818.33 847.533 1817.8 854.467 1817.53 862.2H1838.33C1850.86 862.2 1859.93 862.067 1865.53 861.8C1865.53 849 1863.66 839.933 1859.93 834.6C1856.46 829.267 1850.33 826.6 1841.53 826.6C1834.33 826.6 1828.06 828.067 1822.73 831ZM2138.81 798.6C2141.21 801.533 2142.94 808.867 2144.01 820.6C2145.34 832.333 2146.01 850.2 2146.01 874.2V971H2077.61V875V858.6C2077.61 850.067 2076.94 844.733 2075.61 842.6C2073.47 839.933 2068.54 838.6 2060.81 838.6C2057.07 838.6 2054.27 838.733 2052.41 839C2044.94 839.267 2037.21 841 2029.21 844.2V971H1960.81V787H2016.41L2024.01 817.8C2043.21 794.6 2066.14 783 2092.81 783C2102.41 783 2111.34 784.333 2119.61 787C2128.14 789.667 2134.54 793.533 2138.81 798.6ZM2270.4 895.4C2270.4 900.2 2270.54 905.267 2270.8 910.6C2271.07 915.667 2271.87 918.867 2273.2 920.2C2275.07 922.067 2281.6 923 2292.8 923L2306.4 922.6C2308.8 935.4 2310 950.2 2310 967C2304.94 968.867 2297.47 970.6 2287.6 972.2C2278 973.8 2268.8 974.6 2260 974.6C2241.6 974.6 2227.34 970.6 2217.2 962.6C2207.34 954.333 2202.4 941.667 2202.4 924.6V826.2H2172.4V789.8L2202.4 787L2220.4 743L2270.4 740.2V787H2312.8V826.2H2270.4V895.4ZM2489.98 974.2C2479.04 974.2 2469.98 970.6 2462.77 963.4C2455.84 956.2 2452.38 946.467 2452.38 934.2C2452.38 923.533 2455.98 914.6 2463.18 907.4C2470.64 899.933 2479.98 896.2 2491.18 896.2C2501.84 896.2 2510.78 899.933 2517.98 907.4C2525.18 914.6 2528.78 923.533 2528.78 934.2C2528.78 946.467 2525.18 956.2 2517.98 963.4C2511.04 970.6 2501.71 974.2 2489.98 974.2ZM2764.97 971H2690.57L2652.57 896.2C2648.84 888.467 2643.9 883.533 2637.77 881.4V971H2569.37V731L2637.77 728.2V864.6C2644.17 861.933 2649.64 856.467 2654.17 848.2L2688.17 787L2762.97 786.6L2724.17 849C2718.04 858.867 2711.37 866.733 2704.17 872.6C2710.3 879.267 2717.24 889.4 2724.97 903L2764.97 971ZM2947.13 926.2V971H2781.93V925L2870.73 830.6H2784.32V787H2945.13V832.6L2856.73 926.2H2947.13Z" fill="#222222"/>
<path d="M2376.86 764.2C2367.79 764.2 2359.93 761.133 2353.26 755C2346.86 748.867 2343.66 741.533 2343.66 733C2343.66 724.467 2346.86 717.133 2353.26 711C2359.93 704.867 2367.79 701.8 2376.86 701.8C2385.93 701.8 2393.66 704.867 2400.06 711C2406.46 717.133 2409.66 724.467 2409.66 733C2409.66 741.533 2406.46 748.867 2400.06 755C2393.66 761.133 2385.93 764.2 2376.86 764.2ZM2342.46 787H2410.86V971H2342.46V787Z" fill="#FECC09"/>
<path d="M1548.75 1100.18H1507.41L1498.5 1120H1490.34L1524.26 1045.8H1532L1565.92 1120H1557.65L1548.75 1100.18ZM1545.88 1093.82L1528.08 1053.96L1510.27 1093.82H1545.88ZM1606.85 1045.8C1616.32 1045.8 1623.74 1048.06 1629.11 1052.58C1634.48 1057.11 1637.16 1063.33 1637.16 1071.24C1637.16 1079.15 1634.48 1085.37 1629.11 1089.9C1623.74 1094.35 1616.32 1096.57 1606.85 1096.57H1586.92V1120H1579.08V1045.8H1606.85ZM1606.64 1089.68C1613.99 1089.68 1619.6 1088.09 1623.49 1084.91C1627.38 1081.66 1629.32 1077.11 1629.32 1071.24C1629.32 1065.23 1627.38 1060.64 1623.49 1057.46C1619.6 1054.21 1613.99 1052.58 1606.64 1052.58H1586.92V1089.68H1606.64ZM1704.71 1113.22V1120H1652.24V1045.8H1703.12V1052.58H1660.08V1078.98H1698.45V1085.66H1660.08V1113.22H1704.71ZM1783.06 1045.8V1120H1775.32V1085.76H1728.89V1120H1721.05V1045.8H1728.89V1078.87H1775.32V1045.8H1783.06ZM1874.07 1113.22V1136.64H1866.75V1120H1801.99L1801.88 1136.64H1794.57L1794.67 1113.22H1798.38C1803.26 1112.93 1806.65 1109.08 1808.56 1101.66C1810.47 1094.17 1811.63 1083.57 1812.06 1069.86L1812.9 1045.8H1862.94V1113.22H1874.07ZM1819.05 1070.6C1818.7 1081.91 1817.82 1091.24 1816.4 1098.59C1815.06 1105.87 1812.76 1110.74 1809.51 1113.22H1855.2V1052.58H1819.69L1819.05 1070.6ZM1936.7 1100.18H1895.36L1886.46 1120H1878.3L1912.22 1045.8H1919.95L1953.87 1120H1945.61L1936.7 1100.18ZM1933.84 1093.82L1916.03 1053.96L1898.22 1093.82H1933.84ZM2055.72 1045.8V1120H2047.99V1085.76H2001.56V1120H1993.71V1045.8H2001.56V1078.87H2047.99V1045.8H2055.72ZM2112.25 1120.64C2104.9 1120.64 2098.23 1119.01 2092.22 1115.76C2086.28 1112.44 2081.62 1107.92 2078.23 1102.19C2074.91 1096.47 2073.25 1090.04 2073.25 1082.9C2073.25 1075.76 2074.91 1069.33 2078.23 1063.61C2081.62 1057.88 2086.28 1053.4 2092.22 1050.15C2098.23 1046.82 2104.9 1045.16 2112.25 1045.16C2119.6 1045.16 2126.21 1046.79 2132.08 1050.04C2138.01 1053.29 2142.68 1057.81 2146.07 1063.61C2149.46 1069.33 2151.16 1075.76 2151.16 1082.9C2151.16 1090.04 2149.46 1096.5 2146.07 1102.3C2142.68 1108.02 2138.01 1112.51 2132.08 1115.76C2126.21 1119.01 2119.6 1120.64 2112.25 1120.64ZM2112.25 1113.64C2118.12 1113.64 2123.42 1112.33 2128.15 1109.72C2132.89 1107.03 2136.6 1103.36 2139.28 1098.69C2141.97 1093.96 2143.31 1088.69 2143.31 1082.9C2143.31 1077.11 2141.97 1071.88 2139.28 1067.21C2136.6 1062.48 2132.89 1058.8 2128.15 1056.19C2123.42 1053.5 2118.12 1052.16 2112.25 1052.16C2106.39 1052.16 2101.05 1053.5 2096.25 1056.19C2091.51 1058.8 2087.77 1062.48 2085.01 1067.21C2082.33 1071.88 2080.98 1077.11 2080.98 1082.9C2080.98 1088.69 2082.33 1093.96 2085.01 1098.69C2087.77 1103.36 2091.51 1107.03 2096.25 1109.72C2101.05 1112.33 2106.39 1113.64 2112.25 1113.64ZM2212.8 1081.73C2217.96 1082.79 2221.88 1084.88 2224.57 1087.99C2227.25 1091.03 2228.6 1095.02 2228.6 1099.97C2228.6 1106.4 2226.3 1111.34 2221.71 1114.81C2217.18 1118.27 2210.51 1120 2201.67 1120H2168.81V1045.8H2199.66C2207.57 1045.8 2213.76 1047.43 2218.21 1050.68C2222.66 1053.93 2224.89 1058.63 2224.89 1064.77C2224.89 1068.94 2223.83 1072.48 2221.71 1075.37C2219.59 1078.2 2216.62 1080.32 2212.8 1081.73ZM2176.55 1079.4H2199.24C2204.96 1079.4 2209.34 1078.24 2212.38 1075.9C2215.49 1073.57 2217.04 1070.18 2217.04 1065.73C2217.04 1061.28 2215.49 1057.88 2212.38 1055.55C2209.34 1053.22 2204.96 1052.05 2199.24 1052.05H2176.55V1079.4ZM2201.67 1113.75C2214.46 1113.75 2220.86 1108.98 2220.86 1099.44C2220.86 1090.11 2214.46 1085.44 2201.67 1085.44H2176.55V1113.75H2201.67ZM2279.69 1120.64C2272.34 1120.64 2265.66 1119.01 2259.66 1115.76C2253.72 1112.44 2249.06 1107.92 2245.67 1102.19C2242.34 1096.47 2240.68 1090.04 2240.68 1082.9C2240.68 1075.76 2242.34 1069.33 2245.67 1063.61C2249.06 1057.88 2253.72 1053.4 2259.66 1050.15C2265.66 1046.82 2272.34 1045.16 2279.69 1045.16C2287.04 1045.16 2293.65 1046.79 2299.51 1050.04C2305.45 1053.29 2310.11 1057.81 2313.51 1063.61C2316.9 1069.33 2318.59 1075.76 2318.59 1082.9C2318.59 1090.04 2316.9 1096.5 2313.51 1102.3C2310.11 1108.02 2305.45 1112.51 2299.51 1115.76C2293.65 1119.01 2287.04 1120.64 2279.69 1120.64ZM2279.69 1113.64C2285.56 1113.64 2290.86 1112.33 2295.59 1109.72C2300.33 1107.03 2304.04 1103.36 2306.72 1098.69C2309.41 1093.96 2310.75 1088.69 2310.75 1082.9C2310.75 1077.11 2309.41 1071.88 2306.72 1067.21C2304.04 1062.48 2300.33 1058.8 2295.59 1056.19C2290.86 1053.5 2285.56 1052.16 2279.69 1052.16C2273.83 1052.16 2268.49 1053.5 2263.69 1056.19C2258.95 1058.8 2255.21 1062.48 2252.45 1067.21C2249.76 1071.88 2248.42 1077.11 2248.42 1082.9C2248.42 1088.69 2249.76 1093.96 2252.45 1098.69C2255.21 1103.36 2258.95 1107.03 2263.69 1109.72C2268.49 1112.33 2273.83 1113.64 2279.69 1113.64ZM2383.42 1052.58H2343.88L2343.99 1120H2336.25V1045.8H2383.42V1052.58ZM2418.35 1120.64C2411 1120.64 2404.33 1119.01 2398.32 1115.76C2392.38 1112.44 2387.72 1107.92 2384.33 1102.19C2381.01 1096.47 2379.34 1090.04 2379.34 1082.9C2379.34 1075.76 2381.01 1069.33 2384.33 1063.61C2387.72 1057.88 2392.38 1053.4 2398.32 1050.15C2404.33 1046.82 2411 1045.16 2418.35 1045.16C2425.7 1045.16 2432.31 1046.79 2438.17 1050.04C2444.11 1053.29 2448.77 1057.81 2452.17 1063.61C2455.56 1069.33 2457.25 1075.76 2457.25 1082.9C2457.25 1090.04 2455.56 1096.5 2452.17 1102.3C2448.77 1108.02 2444.11 1112.51 2438.17 1115.76C2432.31 1119.01 2425.7 1120.64 2418.35 1120.64ZM2418.35 1113.64C2424.22 1113.64 2429.52 1112.33 2434.25 1109.72C2438.99 1107.03 2442.7 1103.36 2445.38 1098.69C2448.07 1093.96 2449.41 1088.69 2449.41 1082.9C2449.41 1077.11 2448.07 1071.88 2445.38 1067.21C2442.7 1062.48 2438.99 1058.8 2434.25 1056.19C2429.52 1053.5 2424.22 1052.16 2418.35 1052.16C2412.49 1052.16 2407.15 1053.5 2402.35 1056.19C2397.61 1058.8 2393.87 1062.48 2391.11 1067.21C2388.43 1071.88 2387.08 1077.11 2387.08 1082.9C2387.08 1088.69 2388.43 1093.96 2391.11 1098.69C2393.87 1103.36 2397.61 1107.03 2402.35 1109.72C2407.15 1112.33 2412.49 1113.64 2418.35 1113.64ZM2559.9 1045.8L2526.19 1108.23C2523.78 1112.69 2520.96 1116.01 2517.71 1118.2C2514.53 1120.32 2511.03 1121.38 2507.21 1121.38C2504.39 1121.38 2501.35 1120.71 2498.1 1119.36L2500.32 1113C2502.87 1113.99 2505.2 1114.49 2507.32 1114.49C2512.2 1114.49 2516.19 1111.84 2519.3 1106.54L2521.42 1102.93L2491.31 1045.8H2499.69L2525.55 1096.04L2552.05 1045.8H2559.9ZM2598.8 1045.8C2608.27 1045.8 2615.69 1048.06 2621.06 1052.58C2626.43 1057.11 2629.12 1063.33 2629.12 1071.24C2629.12 1079.15 2626.43 1085.37 2621.06 1089.9C2615.69 1094.35 2608.27 1096.57 2598.8 1096.57H2578.87V1120H2571.03V1045.8H2598.8ZM2598.59 1089.68C2605.94 1089.68 2611.56 1088.09 2615.44 1084.91C2619.33 1081.66 2621.27 1077.11 2621.27 1071.24C2621.27 1065.23 2619.33 1060.64 2615.44 1057.46C2611.56 1054.21 2605.94 1052.58 2598.59 1052.58H2578.87V1089.68H2598.59ZM2677.77 1120.64C2670.42 1120.64 2663.74 1119.01 2657.73 1115.76C2651.8 1112.44 2647.13 1107.92 2643.74 1102.19C2640.42 1096.47 2638.76 1090.04 2638.76 1082.9C2638.76 1075.76 2640.42 1069.33 2643.74 1063.61C2647.13 1057.88 2651.8 1053.4 2657.73 1050.15C2663.74 1046.82 2670.42 1045.16 2677.77 1045.16C2685.12 1045.16 2691.72 1046.79 2697.59 1050.04C2703.53 1053.29 2708.19 1057.81 2711.58 1063.61C2714.97 1069.33 2716.67 1075.76 2716.67 1082.9C2716.67 1090.04 2714.97 1096.5 2711.58 1102.3C2708.19 1108.02 2703.53 1112.51 2697.59 1115.76C2691.72 1119.01 2685.12 1120.64 2677.77 1120.64ZM2677.77 1113.64C2683.63 1113.64 2688.93 1112.33 2693.67 1109.72C2698.4 1107.03 2702.11 1103.36 2704.8 1098.69C2707.48 1093.96 2708.83 1088.69 2708.83 1082.9C2708.83 1077.11 2707.48 1071.88 2704.8 1067.21C2702.11 1062.48 2698.4 1058.8 2693.67 1056.19C2688.93 1053.5 2683.63 1052.16 2677.77 1052.16C2671.9 1052.16 2666.57 1053.5 2661.76 1056.19C2657.03 1058.8 2653.28 1062.48 2650.53 1067.21C2647.84 1071.88 2646.5 1077.11 2646.5 1082.9C2646.5 1088.69 2647.84 1093.96 2650.53 1098.69C2653.28 1103.36 2657.03 1107.03 2661.76 1109.72C2666.57 1112.33 2671.9 1113.64 2677.77 1113.64ZM2778.32 1081.73C2783.48 1082.79 2787.4 1084.88 2790.08 1087.99C2792.77 1091.03 2794.11 1095.02 2794.11 1099.97C2794.11 1106.4 2791.81 1111.34 2787.22 1114.81C2782.7 1118.27 2776.02 1120 2767.19 1120H2734.33V1045.8H2765.17C2773.09 1045.8 2779.27 1047.43 2783.72 1050.68C2788.18 1053.93 2790.4 1058.63 2790.4 1064.77C2790.4 1068.94 2789.34 1072.48 2787.22 1075.37C2785.1 1078.2 2782.13 1080.32 2778.32 1081.73ZM2742.07 1079.4H2764.75C2770.47 1079.4 2774.85 1078.24 2777.89 1075.9C2781 1073.57 2782.56 1070.18 2782.56 1065.73C2782.56 1061.28 2781 1057.88 2777.89 1055.55C2774.85 1053.22 2770.47 1052.05 2764.75 1052.05H2742.07V1079.4ZM2767.19 1113.75C2779.98 1113.75 2786.37 1108.98 2786.37 1099.44C2786.37 1090.11 2779.98 1085.44 2767.19 1085.44H2742.07V1113.75H2767.19ZM2874.67 1045.8V1120H2866.94V1085.76H2820.51V1120H2812.66V1045.8H2820.51V1078.87H2866.94V1045.8H2874.67ZM2951.24 1045.8V1120H2943.5V1097.53H2921.34C2920.36 1097.53 2918.94 1097.46 2917.1 1097.32L2901.52 1120H2893.15L2910 1095.94C2904.56 1094.31 2900.39 1091.45 2897.49 1087.35C2894.6 1083.18 2893.15 1078.09 2893.15 1072.09C2893.15 1063.75 2895.76 1057.28 2900.99 1052.69C2906.29 1048.1 2913.43 1045.8 2922.4 1045.8H2951.24ZM2900.99 1071.88C2900.99 1077.95 2902.76 1082.65 2906.29 1085.97C2909.9 1089.22 2915.13 1090.85 2921.98 1090.85H2943.5V1052.58H2922.72C2915.8 1052.58 2910.43 1054.24 2906.61 1057.57C2902.87 1060.82 2900.99 1065.59 2900.99 1071.88Z" fill="black"/>
</g>
<defs>
<linearGradient id="paint0_linear_1_3" x1="732.712" y1="1151.63" x2="1213.57" y2="525.626" gradientUnits="userSpaceOnUse">
<stop stop-color="#114FEE"/>
<stop offset="1" stop-color="#15B0F8"/>
</linearGradient>
<clipPath id="clip0_1_3">
<rect width="3600" height="1600" fill="white"/>
</clipPath>
<clipPath id="clip1_1_3">
<rect width="753" height="692" fill="white" transform="translate(627 454)"/>
</clipPath>
</defs>
</svg>
